<svg xmlns="http://www.w3.org/2000/svg" viewBox="0 0 1280 800" width="1280" height="800">
  <defs>
    <style>
      @import url('https://fonts.googleapis.com/css2?family=Inter:wght@400;500;600;700&amp;display=swap');
      text { font-family: 'Inter', sans-serif; }
      .bg { fill: #f1f5f9; }
      .sidebar { fill: #1e293b; }
      .card { fill: #ffffff; filter: drop-shadow(0 1px 3px rgba(0,0,0,0.1)); }
      .primary { fill: #0ea5e9; }
      .text-main { fill: #0f172a; }
      .text-sub { fill: #64748b; }
      .border { fill: #e2e8f0; }
      .badge-success { fill: #dcfce7; }
      .badge-success-text { fill: #166534; font-weight: 600; font-size: 13px; }
      .badge-warning { fill: #fef3c7; }
      .badge-warning-text { fill: #92400e; font-weight: 600; font-size: 13px; }
      .badge-blue { fill: #e0f2fe; }
      .badge-blue-text { fill: #075985; font-weight: 600; font-size: 13px; }
    </style>
  </defs>

  <!-- Background Canvas -->
  <rect class="bg" width="1280" height="800" />

  <!-- Sidebar -->
  <rect class="sidebar" width="240" height="800" />
  <text x="30" y="50" style="fill: white; font-weight: 700; font-size: 24px; letter-spacing: 1px;">HCMS<tspan style="font-weight: 400; font-size: 14px; fill: #94a3b8;"> by Omotenashi</tspan></text>
  
  <rect x="15" y="90" width="210" height="40" rx="8" class="primary" opacity="0.2" />
  <rect x="15" y="90" width="4" height="40" rx="2" class="primary" />
  <text x="50" y="115" style="fill: white; font-weight: 600; font-size: 15px;">Lịch Khám (Dashboard)</text>
  
  <text x="50" y="165" style="fill: #94a3b8; font-weight: 500; font-size: 15px;">Hóa đơn &amp; Thu ngân</text>
  <text x="50" y="215" style="fill: #94a3b8; font-weight: 500; font-size: 15px;">Hồ sơ Bệnh nhi</text>
  
  <!-- User Profile in sidebar -->
  <circle cx="45" cy="740" r="15" fill="#475569" />
  <text x="75" y="745" style="fill: #cbd5e1; font-weight: 600; font-size: 14px;">Chị Lan (Lễ Tân)</text>

  <!-- Main Content Area -->
  <text x="280" y="60" class="text-main" style="font-weight: 700; font-size: 28px;">Tổng quan Lịch hẹn</text>
  <text x="280" y="85" class="text-sub" style="font-size: 15px;">Thứ Tư, 15/06/2026</text>

  <!-- Top Action Bar -->
  <rect x="1060" y="40" width="180" height="44" rx="8" class="primary" />
  <text x="1100" y="68" style="fill: white; font-weight: 600; font-size: 15px;">+ Walk-in Đăng ký</text>

  <!-- Metric Cards -->
  <rect x="280" y="120" width="220" height="100" rx="12" class="card" />
  <text x="300" y="150" class="text-sub" style="font-weight: 600; font-size: 14px;">Đang đợi (Pending/Waiting)</text>
  <text x="300" y="190" class="text-main" style="font-weight: 700; font-size: 32px;">4</text>
  
  <rect x="520" y="120" width="220" height="100" rx="12" class="card" />
  <text x="540" y="150" class="text-sub" style="font-weight: 600; font-size: 14px;">Đã hoàn tất khám</text>
  <text x="540" y="190" class="text-main" style="font-weight: 700; font-size: 32px;">12</text>
  
  <rect x="760" y="120" width="220" height="100" rx="12" class="card" />
  <text x="780" y="150" class="text-sub" style="font-weight: 600; font-size: 14px;">Hóa đơn chưa thu</text>
  <text x="780" y="190" class="text-main" style="font-weight: 700; font-size: 32px; fill: #ef4444;">2</text>

  <!-- Dashboard Table -->
  <rect x="280" y="250" width="960" height="500" rx="12" class="card" />
  
  <!-- Table Header -->
  <rect x="280" y="250" width="960" height="50" rx="12" class="bg" />
  <rect x="280" y="290" width="960" height="10" fill="#f1f5f9" /> <!-- Hide bottom rounding of header -->
  <line x1="280" y1="300" x2="1240" y2="300" class="border" stroke-width="1" />
  
  <text x="310" y="280" class="text-sub" style="font-weight: 600; font-size: 14px;">THỜI GIAN</text>
  <text x="440" y="280" class="text-sub" style="font-weight: 600; font-size: 14px;">BỆNH NHI (PATIENT)</text>
  <text x="660" y="280" class="text-sub" style="font-weight: 600; font-size: 14px;">BÁC SĨ (DOCTOR)</text>
  <text x="820" y="280" class="text-sub" style="font-weight: 600; font-size: 14px;">TRẠNG THÁI KHÁM</text>
  <text x="1000" y="280" class="text-sub" style="font-weight: 600; font-size: 14px;">THANH TOÁN</text>
  <text x="1140" y="280" class="text-sub" style="font-weight: 600; font-size: 14px;">THAO TÁC</text>

  <!-- Row 1: Pending Appointment -->
  <line x1="280" y1="370" x2="1240" y2="370" class="border" stroke-width="1" />
  <text x="310" y="340" class="text-main" style="font-weight: 600; font-size: 15px;">08:30</text>
  <text x="440" y="335" class="text-main" style="font-weight: 600; font-size: 15px;">Bé Trần Văn A (4 tuổi)</text>
  <text x="440" y="355" class="text-sub" style="font-size: 12px;">Sốt cao, ho có đờm</text>
  <text x="660" y="340" class="text-main" style="font-size: 15px;">BS. Minh</text>
  
  <rect x="820" y="322" width="100" height="26" rx="13" class="badge-warning" />
  <text x="835" y="340" class="badge-warning-text">Pending</text>
  
  <text x="1000" y="340" class="text-sub" style="font-size: 14px;">-</text>
  
  <rect x="1140" y="322" width="80" height="30" rx="6" class="primary" />
  <text x="1155" y="342" style="fill: white; font-weight: 600; font-size: 13px;">Confirm</text>

  <!-- Row 2: In-Progress / Checked In -->
  <line x1="280" y1="440" x2="1240" y2="440" class="border" stroke-width="1" />
  <text x="310" y="410" class="text-main" style="font-weight: 600; font-size: 15px;">09:00</text>
  <text x="440" y="405" class="text-main" style="font-weight: 600; font-size: 15px;">Bé Lê Thị B (2 tuổi)</text>
  <text x="440" y="425" class="text-sub" style="font-size: 12px;">Khám định kỳ</text>
  <text x="660" y="410" class="text-main" style="font-size: 15px;">BS. Hoàng</text>
  
  <rect x="820" y="392" width="100" height="26" rx="13" class="badge-blue" />
  <text x="835" y="410" class="badge-blue-text">Waiting</text>
  
  <text x="1000" y="410" class="text-sub" style="font-size: 14px;">-</text>
  <text x="1140" y="410" class="text-sub" style="font-size: 14px; text-decoration: underline;">Gọi số</text>

  <!-- Row 3: Completed & Ready for 1-Click Pay (WF-03) -->
  <line x1="280" y1="510" x2="1240" y2="510" class="border" stroke-width="1" />
  <rect x="280" y="440" width="4" height="70" class="accent" /> <!-- Highlight strip -->
  <text x="310" y="480" class="text-main" style="font-weight: 600; font-size: 15px;">09:30</text>
  <text x="440" y="475" class="text-main" style="font-weight: 600; font-size: 15px;">Bé Nguyễn C (6 tuổi)</text>
  <text x="440" y="495" class="text-sub" style="font-size: 12px;">Đau bụng</text>
  <text x="660" y="480" class="text-main" style="font-size: 15px;">BS. Minh</text>
  
  <rect x="820" y="462" width="100" height="26" rx="13" class="badge-success" />
  <text x="832" y="480" class="badge-success-text">Completed</text>
  
  <rect x="1000" y="462" width="80" height="26" rx="13" fill="#fee2e2" />
  <text x="1015" y="480" style="fill: #991b1b; font-weight: 600; font-size: 13px;">Unpaid</text>
  
  <!-- 1-Click Checkout Button Highlight -->
  <rect x="1120" y="458" width="100" height="34" rx="17" fill="#f59e0b" filter="drop-shadow(0 2px 4px rgba(245,158,11,0.3))" />
  <text x="1135" y="480" style="fill: white; font-weight: 700; font-size: 13px;">1-Click Paid</text>

  <!-- Row 4: Fully Paid & Completed -->
  <line x1="280" y1="580" x2="1240" y2="580" class="border" stroke-width="1" />
  <text x="310" y="550" class="text-sub" style="font-weight: 600; font-size: 15px;">10:00</text>
  <text x="440" y="545" class="text-sub" style="font-weight: 600; font-size: 15px;">Bé Phạm D (3 tuổi)</text>
  <text x="440" y="565" class="text-sub" style="font-size: 12px;">Dị ứng sữa</text>
  <text x="660" y="550" class="text-sub" style="font-size: 15px;">BS. Hoàng</text>
  
  <rect x="820" y="532" width="100" height="26" rx="13" fill="#f1f5f9" />
  <text x="832" y="550" style="fill: #64748b; font-weight: 600; font-size: 13px;">Completed</text>
  
  <rect x="1000" y="532" width="80" height="26" rx="13" class="badge-success" />
  <text x="1020" y="550" class="badge-success-text">Paid</text>
  
  <text x="1155" y="550" class="text-sub" style="font-size: 14px;">In biên lai</text>

</svg>
